<svg t="1725099680823" class="icon" viewBox="0 0 1024 1024" version="1.1" xmlns="http://www.w3.org/2000/svg" p-id="3766" width="200" height="200"><path d="M326.4 629.333333l-147.2 147.2c-6.4 4.266667-8.533333 12.8-8.533333 19.2 0 14.933333 10.666667 25.6 25.6 25.6 6.4 0 12.8-2.133333 19.2-8.533333l147.2-147.2 136.533333 136.533333 2.133333 2.133334c10.666667 8.533333 27.733333 8.533333 36.266667-2.133334 57.6-66.133333 74.666667-157.866667 44.8-241.066666l106.666667-136.533334c42.666667 4.266667 85.333333-10.666667 117.333333-40.533333 10.666667-10.666667 10.666667-27.733333 0-36.266667L640 179.2c-10.666667-10.666667-27.733333-10.666667-36.266667 0-29.866667 29.866667-46.933333 72.533333-40.533333 117.333333L420.266667 405.333333c-78.933333-21.333333-166.4-4.266667-228.266667 49.066667l-2.133333 2.133333c-10.666667 10.666667-10.666667 25.6 0 36.266667l136.533333 136.533333z" fill="#007aff" p-id="3767"></path></svg>