<svg t="1723739943638" class="icon" viewBox="0 0 1024 1024" version="1.1" xmlns="http://www.w3.org/2000/svg" p-id="1050" width="200" height="200"><path d="M793.371429 885.828571C900.342857 802.171429 969.142857 671.885714 969.142857 525.6 969.142857 273.142857 765.142857 68.914286 512.685714 68.571429 259.885714 68.228571 54.857143 272.914286 54.857143 525.6c0 143.085714 65.714286 270.742857 168.685714 354.514286 4 3.2 9.828571 2.514286 13.028572-1.485715l45.028571-57.714285c3.085714-3.885714 2.4-9.485714-1.371429-12.685715-9.257143-7.542857-18.171429-15.657143-26.742857-24.228571a364.16 364.16 0 0 1-78.4-116.228571C155.885714 622.857143 146.285714 574.971429 146.285714 525.6s9.6-97.257143 28.685715-142.285714c18.4-43.542857 44.8-82.628571 78.4-116.228572 33.6-33.6 72.685714-60 116.228571-78.4C414.742857 169.6 462.628571 160 512 160s97.257143 9.6 142.285714 28.685714c43.542857 18.4 82.628571 44.8 116.228572 78.4 33.6 33.6 60 72.685714 78.4 116.228572 19.085714 45.028571 28.685714 92.914286 28.685714 142.285714s-9.6 97.257143-28.685714 142.285714a364.16 364.16 0 0 1-78.4 116.228572c-10.628571 10.628571-21.828571 20.571429-33.485715 29.714285L690.514286 754.285714a9.142857 9.142857 0 0 0-16.114286 3.428572l-45.257143 185.371428c-1.371429 5.714286 2.971429 11.314286 8.8 11.314286l190.857143 0.914286c7.657143 0 12-8.8 7.2-14.742857l-42.628571-54.742858z" fill="#8a8a8a" p-id="1051"></path></svg>